<svg width="512" height="512" viewBox="0 0 512 512" fill="none" xmlns="http://www.w3.org/2000/svg">
  <!-- Hexagon background -->
  <path d="M256 20L436 136V376L256 492L76 376V136L256 20Z" fill="#20B2AA"/>

  <!-- Code brackets { } -->
  <path d="M180 200C170 200 165 205 165 215V225C165 235 160 240 150 240V250C160 250 165 255 165 265V275C165 285 170 290 180 290H190V280H180C175 280 175 275 175 275V265C175 250 170 245 165 245C170 245 175 240 175 225V215C175 215 175 210 180 210H190V200H180Z" fill="white"/>
  <path d="M332 200V210H342C347 210 347 215 347 215V225C347 240 352 245 357 245C352 245 347 250 347 265V275C347 275 347 280 342 280H332V290H342C352 290 357 285 357 275V265C357 255 362 250 372 250V240C362 240 357 235 357 225V215C357 205 352 200 342 200H332Z" fill="white"/>

  <!-- Center dot -->
  <circle cx="256" cy="240" r="12" fill="white"/>

  <!-- Bottom line (representing underline or terminal) -->
  <rect x="200" y="320" width="112" height="8" rx="4" fill="white"/>

  <!-- Arrow/chevron pointing right -->
  <path d="M320 360L340 380L320 400L325 405L350 380L325 355L320 360Z" fill="white"/>
</svg>
